{
    "asset": {
        "generator": "SOLIDWORKSGLTF",
        "version": "2.0"
    },
    "scene": 0,
    "scenes": [
        {
            "name": "Défaut",
            "nodes": [
                0,
                1
            ]
        }
    ],
    "nodes": [
        {
            "matrix": [
                0.7587098950374179,
                2.7755575615628914e-17,
                -0.6514286570088164,
                0.0,
                -0.37522660169006844,
                0.8174456955697412,
                -0.4370212033513072,
                0.0,
                0.5325075516426343,
                0.5760056725367397,
                0.6202041378845076,
                0.0,
                1.2373461581235357,
                1.3722026440605386,
                1.3636682331628482,
                1.0
            ],
            "camera": 0,
            "name": "current camera"
        },
        {
            "children": [
                2,
                10,
                18,
                26,
                27
            ],
            "name": "piece_1"
        },
        {
            "rotation": [
                -0.02388494648039341,
                0.706703245639801,
                -0.02388494648039341,
                0.7067033052444458
            ],
            "translation": [
                -1.1710000038146973,
                -0.023129453882575035,
                0.017718542367219925
            ],
            "children": [
                3,
                4,
                5,
                6,
                7,
                8,
                9
            ],
            "name": "Piston"
        },
        {
            "translation": [
                -0.005326318088918924,
                -0.01839912123978138,
                1.0190000534057617
            ],
            "mesh": 0,
            "name": "Connecting Rod Cap-1"
        },
        {
            "translation": [
                0.005388436373323202,
                -0.01839912123978138,
                1.0190000534057617
            ],
            "mesh": 1,
            "name": "Connecting Rod-1"
        },
        {
            "rotation": [
                -3.2188747124620602e-18,
                9.523945152954257e-17,
                0.03377842530608177,
                0.99942946434021
            ],
            "translation": [
                0.002208325080573559,
                0.22979339957237244,
                1.0190000534057617
            ],
            "mesh": 2,
            "name": "Piston Ring-3"
        },
        {
            "rotation": [
                0.7065505385398865,
                0.02804207056760788,
                0.02804207056760788,
                0.7065505385398865
            ],
            "scale": [
                0.9999999403953552,
                1.0,
                0.9999999403953552
            ],
            "translation": [
                0.005388436373323202,
                0.18280087411403656,
                1.0190000534057617
            ],
            "mesh": 3,
            "name": "Piston Pin-1"
        },
        {
            "rotation": [
                -1.7187108361308232e-19,
                5.0852884438846064e-18,
                0.03377842530608177,
                0.99942946434021
            ],
            "translation": [
                0.0037747491151094437,
                0.20664633810520172,
                1.0190000534057617
            ],
            "mesh": 4,
            "name": "Piston Ring-2"
        },
        {
            "rotation": [
                -4.062559801283417e-19,
                1.2020223874970462e-17,
                0.03377842530608177,
                0.99942946434021
            ],
            "translation": [
                0.0029915370978415012,
                0.21821987628936768,
                1.0190000534057617
            ],
            "mesh": 5,
            "name": "Piston Ring-1"
        },
        {
            "rotation": [
                9.635149566130089e-33,
                -3.083247919936346e-32,
                0.03377842530608177,
                0.99942946434021
            ],
            "translation": [
                0.0045106983743608,
                0.1957712173461914,
                1.0190000534057617
            ],
            "mesh": 6,
            "name": "Piston-1"
        },
        {
            "rotation": [
                0.02388494648039341,
                -0.706703245639801,
                -0.02388494648039341,
                0.7067033052444458
            ],
            "translation": [
                1.0950000286102295,
                0.06057135760784149,
                -0.017718542367219925
            ],
            "children": [
                11,
                12,
                13,
                14,
                15,
                16,
                17
            ],
            "name": "Piston"
        },
        {
            "rotation": [
                -4.062559801283417e-19,
                1.2020223874970462e-17,
                0.03377842530608177,
                0.99942946434021
            ],
            "translation": [
                0.0029915370978415012,
                0.21821987628936768,
                1.0190000534057617
            ],
            "mesh": 7,
            "name": "Piston Ring-1"
        },
        {
            "rotation": [
                0.7071068286895752,
                -2.1789411444063172e-33,
                -2.1789411444063172e-33,
                0.7071068286895752
            ],
            "translation": [
                0.005388436373323202,
                0.18280087411403656,
                1.0190000534057617
            ],
            "mesh": 8,
            "name": "Piston Pin-1"
        },
        {
            "translation": [
                0.005388436373323202,
                -0.01839912123978138,
                1.0190000534057617
            ],
            "mesh": 9,
            "name": "Connecting Rod-1"
        },
        {
            "translation": [
                -0.005326318088918924,
                -0.01839912123978138,
                1.0190000534057617
            ],
            "mesh": 10,
            "name": "Connecting Rod Cap-1"
        },
        {
            "rotation": [
                1.321650175615746e-32,
                -3.083247846467949e-33,
                0.03377842530608177,
                0.99942946434021
            ],
            "translation": [
                0.0045106983743608,
                0.1957712173461914,
                1.0190000534057617
            ],
            "mesh": 11,
            "name": "Piston-1"
        },
        {
            "rotation": [
                -1.7187108361308232e-19,
                5.0852884438846064e-18,
                0.03377842530608177,
                0.99942946434021
            ],
            "translation": [
                0.0037747491151094437,
                0.20664633810520172,
                1.0190000534057617
            ],
            "mesh": 12,
            "name": "Piston Ring-2"
        },
        {
            "rotation": [
                -3.2188747124620602e-18,
                9.523945152954257e-17,
                0.03377842530608177,
                0.99942946434021
            ],
            "translation": [
                0.002208325080573559,
                0.22979339957237244,
                1.0190000534057617
            ],
            "mesh": 13,
            "name": "Piston Ring-3"
        },
        {
            "rotation": [
                0.02388494648039341,
                -0.706703245639801,
                -0.02388494648039341,
                0.7067033052444458
            ],
            "translation": [
                0.9810000061988831,
                0.06057135760784149,
                -0.017718542367219925
            ],
            "children": [
                19,
                20,
                21,
                22,
                23,
                24,
                25
            ],
            "name": "Piston"
        },
        {
            "rotation": [
                -4.062559801283417e-19,
                1.2020223874970462e-17,
                0.03377842530608177,
                0.99942946434021
            ],
            "translation": [
                0.0029915370978415012,
                0.21821987628936768,
                1.0190000534057617
            ],
            "mesh": 14,
            "name": "Piston Ring-1"
        },
        {
            "translation": [
                -0.005326318088918924,
                -0.01839912123978138,
                1.0190000534057617
            ],
            "mesh": 15,
            "name": "Connecting Rod Cap-1"
        },
        {
            "rotation": [
                0.7071068286895752,
                8.715764577625269e-33,
                8.715764577625269e-33,
                0.7071068286895752
            ],
            "translation": [
                0.005388436373323202,
                0.18280087411403656,
                1.0190000534057617
            ],
            "mesh": 16,
            "name": "Piston Pin-1"
        },
        {
            "rotation": [
                -1.7187108361308232e-19,
                5.0852884438846064e-18,
                0.03377842530608177,
                0.99942946434021
            ],
            "translation": [
                0.0037747491151094437,
                0.20664633810520172,
                1.0190000534057617
            ],
            "mesh": 17,
            "name": "Piston Ring-2"
        },
        {
            "rotation": [
                -3.2188747124620602e-18,
                9.523945152954257e-17,
                0.03377842530608177,
                0.99942946434021
            ],
            "translation": [
                0.002208325080573559,
                0.22979339957237244,
                1.0190000534057617
            ],
            "mesh": 18,
            "name": "Piston Ring-3"
        },
        {
            "rotation": [
                -8.626748798541313e-33,
                6.166495692935898e-33,
                0.03377842530608177,
                0.99942946434021
            ],
            "translation": [
                0.0045106983743608,
                0.1957712173461914,
                1.0190000534057617
            ],
            "mesh": 19,
            "name": "Piston-1"
        },
        {
            "translation": [
                0.005388436373323202,
                -0.01839912123978138,
                1.0190000534057617
            ],
            "mesh": 20,
            "name": "Connecting Rod-1"
        },
        {
            "rotation": [
                -0.15629203617572784,
                0.0,
                0.0,
                0.9877108931541443
            ],
            "mesh": 21,
            "name": "Crankshaft-2"
        },
        {
            "rotation": [
                -0.02388494648039341,
                -0.706703245639801,
                0.02388494648039341,
                0.7067033052444458
            ],
            "translation": [
                1.2089999914169312,
                -0.02385708875954151,
                0.00696626165881753
            ],
            "children": [
                28,
                29,
                30,
                31,
                32,
                33,
                34
            ],
            "name": "Piston"
        },
        {
            "translation": [
                0.005388436373323202,
                -0.01839912123978138,
                1.0190000534057617
            ],
            "mesh": 22,
            "name": "Connecting Rod-1"
        },
        {
            "rotation": [
                1.7848117436087306e-19,
                5.092233452307602e-18,
                -0.03377842530608177,
                0.99942946434021
            ],
            "translation": [
                0.007002123165875673,
                0.20664633810520172,
                1.0190000534057617
            ],
            "mesh": 23,
            "name": "Piston Ring-2"
        },
        {
            "rotation": [
                6.610097614036061e-21,
                6.945258839000974e-21,
                -0.03377842530608177,
                0.99942946434021
            ],
            "translation": [
                0.006266173906624317,
                0.1957712173461914,
                1.0190000534057617
            ],
            "mesh": 24,
            "name": "Piston-1"
        },
        {
            "translation": [
                -0.005326318088918924,
                -0.01839912123978138,
                1.0190000534057617
            ],
            "mesh": 25,
            "name": "Connecting Rod Cap-1"
        },
        {
            "rotation": [
                0.705493152141571,
                -0.047742631286382675,
                -0.047742631286382675,
                0.7054932117462158
            ],
            "translation": [
                0.005388436373323202,
                0.18280087411403656,
                1.0190000534057617
            ],
            "mesh": 26,
            "name": "Piston Pin-1"
        },
        {
            "rotation": [
                4.128660579514354e-19,
                1.202716971057407e-17,
                -0.03377842530608177,
                0.99942946434021
            ],
            "translation": [
                0.007785335183143616,
                0.21821987628936768,
                1.0190000534057617
            ],
            "mesh": 27,
            "name": "Piston Ring-1"
        },
        {
            "rotation": [
                3.2254847127369715e-18,
                9.524639322924312e-17,
                -0.03377842530608177,
                0.99942946434021
            ],
            "translation": [
                0.008568547666072845,
                0.22979339957237244,
                1.0190000534057617
            ],
            "mesh": 28,
            "name": "Piston Ring-3"
        }
    ],
    "cameras": [
        {
            "type": "orthographic",
            "orthographic": {
                "xmag": 0.5264044248246575,
                "ymag": 0.40676705554632625,
                "zfar": 2.9657798671122446,
                "znear": 1.8152214862119063
            }
        }
    ],
    "meshes": [
        {
            "primitives": [
                {
                    "attributes": {
                        "POSITION": 1,
                        "NORMAL": 2
                    },
                    "indices": 0,
                    "material": 0,
                    "mode": 4
                }
            ]
        },
        {
            "primitives": [
                {
                    "attributes": {
                        "POSITION": 4,
                        "NORMAL": 5
                    },
                    "indices": 3,
                    "material": 1,
                    "mode": 4
                }
            ]
        },
        {
            "primitives": [
                {
                    "attributes": {
                        "POSITION": 7,
                        "NORMAL": 8
                    },
                    "indices": 6,
                    "material": 2,
                    "mode": 4
                }
            ]
        },
        {
            "primitives": [
                {
                    "attributes": {
                        "POSITION": 10,
                        "NORMAL": 11
                    },
                    "indices": 9,
                    "material": 3,
                    "mode": 4
                }
            ]
        },
        {
            "primitives": [
                {
                    "attributes": {
                        "POSITION": 13,
                        "NORMAL": 14
                    },
                    "indices": 12,
                    "material": 2,
                    "mode": 4
                }
            ]
        },
        {
            "primitives": [
                {
                    "attributes": {
                        "POSITION": 16,
                        "NORMAL": 17
                    },
                    "indices": 15,
                    "material": 2,
                    "mode": 4
                }
            ]
        },
        {
            "primitives": [
                {
                    "attributes": {
                        "POSITION": 19,
                        "NORMAL": 20
                    },
                    "indices": 18,
                    "material": 4,
                    "mode": 4
                }
            ]
        },
        {
            "primitives": [
                {
                    "attributes": {
                        "POSITION": 22,
                        "NORMAL": 23
                    },
                    "indices": 21,
                    "material": 2,
                    "mode": 4
                }
            ]
        },
        {
            "primitives": [
                {
                    "attributes": {
                        "POSITION": 25,
                        "NORMAL": 26
                    },
                    "indices": 24,
                    "material": 3,
                    "mode": 4
                }
            ]
        },
        {
            "primitives": [
                {
                    "attributes": {
                        "POSITION": 28,
                        "NORMAL": 29
                    },
                    "indices": 27,
                    "material": 1,
                    "mode": 4
                }
            ]
        },
        {
            "primitives": [
                {
                    "attributes": {
                        "POSITION": 31,
                        "NORMAL": 32
                    },
                    "indices": 30,
                    "material": 0,
                    "mode": 4
                }
            ]
        },
        {
            "primitives": [
                {
                    "attributes": {
                        "POSITION": 34,
                        "NORMAL": 35
                    },
                    "indices": 33,
                    "material": 4,
                    "mode": 4
                }
            ]
        },
        {
            "primitives": [
                {
                    "attributes": {
                        "POSITION": 37,
                        "NORMAL": 38
                    },
                    "indices": 36,
                    "material": 2,
                    "mode": 4
                }
            ]
        },
        {
            "primitives": [
                {
                    "attributes": {
                        "POSITION": 40,
                        "NORMAL": 41
                    },
                    "indices": 39,
                    "material": 2,
                    "mode": 4
                }
            ]
        },
        {
            "primitives": [
                {
                    "attributes": {
                        "POSITION": 43,
                        "NORMAL": 44
                    },
                    "indices": 42,
                    "material": 2,
                    "mode": 4
                }
            ]
        },
        {
            "primitives": [
                {
                    "attributes": {
                        "POSITION": 46,
                        "NORMAL": 47
                    },
                    "indices": 45,
                    "material": 0,
                    "mode": 4
                }
            ]
        },
        {
            "primitives": [
                {
                    "attributes": {
                        "POSITION": 49,
                        "NORMAL": 50
                    },
                    "indices": 48,
                    "material": 3,
                    "mode": 4
                }
            ]
        },
        {
            "primitives": [
                {
                    "attributes": {
                        "POSITION": 52,
                        "NORMAL": 53
                    },
                    "indices": 51,
                    "material": 2,
                    "mode": 4
                }
            ]
        },
        {
            "primitives": [
                {
                    "attributes": {
                        "POSITION": 55,
                        "NORMAL": 56
                    },
                    "indices": 54,
                    "material": 2,
                    "mode": 4
                }
            ]
        },
        {
            "primitives": [
                {
                    "attributes": {
                        "POSITION": 58,
                        "NORMAL": 59
                    },
                    "indices": 57,
                    "material": 4,
                    "mode": 4
                }
            ]
        },
        {
            "primitives": [
                {
                    "attributes": {
                        "POSITION": 61,
                        "NORMAL": 62
                    },
                    "indices": 60,
                    "material": 1,
                    "mode": 4
                }
            ]
        },
        {
            "primitives": [
                {
                    "attributes": {
                        "POSITION": 64,
                        "NORMAL": 65
                    },
                    "indices": 63,
                    "material": 5,
                    "mode": 4
                }
            ]
        },
        {
            "primitives": [
                {
                    "attributes": {
                        "POSITION": 67,
                        "NORMAL": 68
                    },
                    "indices": 66,
                    "material": 1,
                    "mode": 4
                }
            ]
        },
        {
            "primitives": [
                {
                    "attributes": {
                        "POSITION": 70,
                        "NORMAL": 71
                    },
                    "indices": 69,
                    "material": 2,
                    "mode": 4
                }
            ]
        },
        {
            "primitives": [
                {
                    "attributes": {
                        "POSITION": 73,
                        "NORMAL": 74
                    },
                    "indices": 72,
                    "material": 4,
                    "mode": 4
                }
            ]
        },
        {
            "primitives": [
                {
                    "attributes": {
                        "POSITION": 76,
                        "NORMAL": 77
                    },
                    "indices": 75,
                    "material": 0,
                    "mode": 4
                }
            ]
        },
        {
            "primitives": [
                {
                    "attributes": {
                        "POSITION": 79,
                        "NORMAL": 80
                    },
                    "indices": 78,
                    "material": 3,
                    "mode": 4
                }
            ]
        },
        {
            "primitives": [
                {
                    "attributes": {
                        "POSITION": 82,
                        "NORMAL": 83
                    },
                    "indices": 81,
                    "material": 2,
                    "mode": 4
                }
            ]
        },
        {
            "primitives": [
                {
                    "attributes": {
                        "POSITION": 85,
                        "NORMAL": 86
                    },
                    "indices": 84,
                    "material": 2,
                    "mode": 4
                }
            ]
        }
    ],
    "accessors": [
        {
            "bufferView": 0,
            "byteOffset": 0,
            "componentType": 5125,
            "count": 5928,
            "type": "SCALAR",
            "min": [
                0
            ],
            "max": [
                2561
            ]
        },
        {
            "bufferView": 1,
            "byteOffset": 0,
            "componentType": 5126,
            "count": 2562,
            "type": "VEC3",
            "min": [
                -0.03628524765372276,
                -0.05999999865889549,
                -0.01899999938905239
            ],
            "max": [
                0.05771475285291672,
                2.7755575615628914e-17,
                0.01899999938905239
            ]
        },
        {
            "bufferView": 2,
            "byteOffset": 0,
            "componentType": 5126,
            "count": 2562,
            "type": "VEC3",
            "min": [
                -1.0,
                -1.0,
                -1.0
            ],
            "max": [
                1.0,
                1.0,
                1.0
            ]
        },
        {
            "bufferView": 3,
            "byteOffset": 0,
            "componentType": 5125,
            "count": 6276,
            "type": "SCALAR",
            "min": [
                0
            ],
            "max": [
                2709
            ]
        },
        {
            "bufferView": 4,
            "byteOffset": 0,
            "componentType": 5126,
            "count": 2710,
            "type": "VEC3",
            "min": [
                -0.04699999839067459,
                -2.42861286636753e-17,
                -0.01899999938905239
            ],
            "max": [
                0.04699999839067459,
                0.22370000183582306,
                0.01899999938905239
            ]
        },
        {
            "bufferView": 5,
            "byteOffset": 0,
            "componentType": 5126,
            "count": 2710,
            "type": "VEC3",
            "min": [
                -1.0,
                -1.0,
                -1.0
            ],
            "max": [
                1.0,
                1.0,
                1.0
            ]
        },
        {
            "bufferView": 6,
            "byteOffset": 0,
            "componentType": 5125,
            "count": 1272,
            "type": "SCALAR",
            "min": [
                0
            ],
            "max": [
                439
            ]
        },
        {
            "bufferView": 7,
            "byteOffset": 0,
            "componentType": 5126,
            "count": 440,
            "type": "VEC3",
            "min": [
                -0.04248133674263954,
                0.0,
                -0.042500000447034836
            ],
            "max": [
                0.04248133674263954,
                0.00430000014603138,
                0.042500000447034836
            ]
        },
        {
            "bufferView": 8,
            "byteOffset": 0,
            "componentType": 5126,
            "count": 440,
            "type": "VEC3",
            "min": [
                -0.9995608329772949,
                -1.0,
                -1.0
            ],
            "max": [
                0.9995608329772949,
                1.0,
                1.0
            ]
        },
        {
            "bufferView": 9,
            "byteOffset": 0,
            "componentType": 5125,
            "count": 1056,
            "type": "SCALAR",
            "min": [
                0
            ],
            "max": [
                421
            ]
        },
        {
            "bufferView": 10,
            "byteOffset": 0,
            "componentType": 5126,
            "count": 422,
            "type": "VEC3",
            "min": [
                -0.016899999231100082,
                -0.04100000113248825,
                -0.016899999231100082
            ],
            "max": [
                0.016899999231100082,
                0.04100000113248825,
                0.016899999231100082
            ]
        },
        {
            "bufferView": 11,
            "byteOffset": 0,
            "componentType": 5126,
            "count": 422,
            "type": "VEC3",
            "min": [
                -1.0,
                -1.0,
                -1.0
            ],
            "max": [
                1.0,
                1.0,
                1.0
            ]
        },
        {
            "bufferView": 12,
            "byteOffset": 0,
            "componentType": 5125,
            "count": 1272,
            "type": "SCALAR",
            "min": [
                0
            ],
            "max": [
                439
            ]
        },
        {
            "bufferView": 13,
            "byteOffset": 0,
            "componentType": 5126,
            "count": 440,
            "type": "VEC3",
            "min": [
                -0.04248133674263954,
                0.0,
                -0.042500000447034836
            ],
            "max": [
                0.04248133674263954,
                0.00430000014603138,
                0.042500000447034836
            ]
        },
        {
            "bufferView": 14,
            "byteOffset": 0,
            "componentType": 5126,
            "count": 440,
            "type": "VEC3",
            "min": [
                -0.9995608329772949,
                -1.0,
                -1.0
            ],
            "max": [
                0.9995608329772949,
                1.0,
                1.0
            ]
        },
        {
            "bufferView": 15,
            "byteOffset": 0,
            "componentType": 5125,
            "count": 1272,
            "type": "SCALAR",
            "min": [
                0
            ],
            "max": [
                439
            ]
        },
        {
            "bufferView": 16,
            "byteOffset": 0,
            "componentType": 5126,
            "count": 440,
            "type": "VEC3",
            "min": [
                -0.04248133674263954,
                0.0,
                -0.042500000447034836
            ],
            "max": [
                0.04248133674263954,
                0.00430000014603138,
                0.042500000447034836
            ]
        },
        {
            "bufferView": 17,
            "byteOffset": 0,
            "componentType": 5126,
            "count": 440,
            "type": "VEC3",
            "min": [
                -0.9995608329772949,
                -1.0,
                -1.0
            ],
            "max": [
                0.9995608329772949,
                1.0,
                1.0
            ]
        },
        {
            "bufferView": 18,
            "byteOffset": 0,
            "componentType": 5125,
            "count": 10278,
            "type": "SCALAR",
            "min": [
                0
            ],
            "max": [
                4529
            ]
        },
        {
            "bufferView": 19,
            "byteOffset": 0,
            "componentType": 5126,
            "count": 4530,
            "type": "VEC3",
            "min": [
                -0.042500000447034836,
                -0.03999999910593033,
                -0.042500000447034836
            ],
            "max": [
                0.042500000447034836,
                0.054999999701976776,
                0.042500000447034836
            ]
        },
        {
            "bufferView": 20,
            "byteOffset": 0,
            "componentType": 5126,
            "count": 4530,
            "type": "VEC3",
            "min": [
                -1.0,
                -1.0,
                -1.0
            ],
            "max": [
                1.0,
                1.0,
                1.0
            ]
        },
        {
            "bufferView": 21,
            "byteOffset": 0,
            "componentType": 5125,
            "count": 1272,
            "type": "SCALAR",
            "min": [
                0
            ],
            "max": [
                439
            ]
        },
        {
            "bufferView": 22,
            "byteOffset": 0,
            "componentType": 5126,
            "count": 440,
            "type": "VEC3",
            "min": [
                -0.04248133674263954,
                0.0,
                -0.042500000447034836
            ],
            "max": [
                0.04248133674263954,
                0.00430000014603138,
                0.042500000447034836
            ]
        },
        {
            "bufferView": 23,
            "byteOffset": 0,
            "componentType": 5126,
            "count": 440,
            "type": "VEC3",
            "min": [
                -0.9995608329772949,
                -1.0,
                -1.0
            ],
            "max": [
                0.9995608329772949,
                1.0,
                1.0
            ]
        },
        {
            "bufferView": 24,
            "byteOffset": 0,
            "componentType": 5125,
            "count": 1056,
            "type": "SCALAR",
            "min": [
                0
            ],
            "max": [
                421
            ]
        },
        {
            "bufferView": 25,
            "byteOffset": 0,
            "componentType": 5126,
            "count": 422,
            "type": "VEC3",
            "min": [
                -0.016899999231100082,
                -0.04100000113248825,
                -0.016899999231100082
            ],
            "max": [
                0.016899999231100082,
                0.04100000113248825,
                0.016899999231100082
            ]
        },
        {
            "bufferView": 26,
            "byteOffset": 0,
            "componentType": 5126,
            "count": 422,
            "type": "VEC3",
            "min": [
                -1.0,
                -1.0,
                -1.0
            ],
            "max": [
                1.0,
                1.0,
                1.0
            ]
        },
        {
            "bufferView": 27,
            "byteOffset": 0,
            "componentType": 5125,
            "count": 6276,
            "type": "SCALAR",
            "min": [
                0
            ],
            "max": [
                2709
            ]
        },
        {
            "bufferView": 28,
            "byteOffset": 0,
            "componentType": 5126,
            "count": 2710,
            "type": "VEC3",
            "min": [
                -0.04699999839067459,
                -2.42861286636753e-17,
                -0.01899999938905239
            ],
            "max": [
                0.04699999839067459,
                0.22370000183582306,
                0.01899999938905239
            ]
        },
        {
            "bufferView": 29,
            "byteOffset": 0,
            "componentType": 5126,
            "count": 2710,
            "type": "VEC3",
            "min": [
                -1.0,
                -1.0,
                -1.0
            ],
            "max": [
                1.0,
                1.0,
                1.0
            ]
        },
        {
            "bufferView": 30,
            "byteOffset": 0,
            "componentType": 5125,
            "count": 5928,
            "type": "SCALAR",
            "min": [
                0
            ],
            "max": [
                2561
            ]
        },
        {
            "bufferView": 31,
            "byteOffset": 0,
            "componentType": 5126,
            "count": 2562,
            "type": "VEC3",
            "min": [
                -0.03628524765372276,
                -0.05999999865889549,
                -0.01899999938905239
            ],
            "max": [
                0.05771475285291672,
                2.7755575615628914e-17,
                0.01899999938905239
            ]
        },
        {
            "bufferView": 32,
            "byteOffset": 0,
            "componentType": 5126,
            "count": 2562,
            "type": "VEC3",
            "min": [
                -1.0,
                -1.0,
                -1.0
            ],
            "max": [
                1.0,
                1.0,
                1.0
            ]
        },
        {
            "bufferView": 33,
            "byteOffset": 0,
            "componentType": 5125,
            "count": 10278,
            "type": "SCALAR",
            "min": [
                0
            ],
            "max": [
                4529
            ]
        },
        {
            "bufferView": 34,
            "byteOffset": 0,
            "componentType": 5126,
            "count": 4530,
            "type": "VEC3",
            "min": [
                -0.042500000447034836,
                -0.03999999910593033,
                -0.042500000447034836
            ],
            "max": [
                0.042500000447034836,
                0.054999999701976776,
                0.042500000447034836
            ]
        },
        {
            "bufferView": 35,
            "byteOffset": 0,
            "componentType": 5126,
            "count": 4530,
            "type": "VEC3",
            "min": [
                -1.0,
                -1.0,
                -1.0
            ],
            "max": [
                1.0,
                1.0,
                1.0
            ]
        },
        {
            "bufferView": 36,
            "byteOffset": 0,
            "componentType": 5125,
            "count": 1272,
            "type": "SCALAR",
            "min": [
                0
            ],
            "max": [
                439
            ]
        },
        {
            "bufferView": 37,
            "byteOffset": 0,
            "componentType": 5126,
            "count": 440,
            "type": "VEC3",
            "min": [
                -0.04248133674263954,
                0.0,
                -0.042500000447034836
            ],
            "max": [
                0.04248133674263954,
                0.00430000014603138,
                0.042500000447034836
            ]
        },
        {
            "bufferView": 38,
            "byteOffset": 0,
            "componentType": 5126,
            "count": 440,
            "type": "VEC3",
            "min": [
                -0.9995608329772949,
                -1.0,
                -1.0
            ],
            "max": [
                0.9995608329772949,
                1.0,
                1.0
            ]
        },
        {
            "bufferView": 39,
            "byteOffset": 0,
            "componentType": 5125,
            "count": 1272,
            "type": "SCALAR",
            "min": [
                0
            ],
            "max": [
                439
            ]
        },
        {
            "bufferView": 40,
            "byteOffset": 0,
            "componentType": 5126,
            "count": 440,
            "type": "VEC3",
            "min": [
                -0.04248133674263954,
                0.0,
                -0.042500000447034836
            ],
            "max": [
                0.04248133674263954,
                0.00430000014603138,
                0.042500000447034836
            ]
        },
        {
            "bufferView": 41,
            "byteOffset": 0,
            "componentType": 5126,
            "count": 440,
            "type": "VEC3",
            "min": [
                -0.9995608329772949,
                -1.0,
                -1.0
            ],
            "max": [
                0.9995608329772949,
                1.0,
                1.0
            ]
        },
        {
            "bufferView": 42,
            "byteOffset": 0,
            "componentType": 5125,
            "count": 1272,
            "type": "SCALAR",
            "min": [
                0
            ],
            "max": [
                439
            ]
        },
        {
            "bufferView": 43,
            "byteOffset": 0,
            "componentType": 5126,
            "count": 440,
            "type": "VEC3",
            "min": [
                -0.04248133674263954,
                0.0,
                -0.042500000447034836
            ],
            "max": [
                0.04248133674263954,
                0.00430000014603138,
                0.042500000447034836
            ]
        },
        {
            "bufferView": 44,
            "byteOffset": 0,
            "componentType": 5126,
            "count": 440,
            "type": "VEC3",
            "min": [
                -0.9995608329772949,
                -1.0,
                -1.0
            ],
            "max": [
                0.9995608329772949,
                1.0,
                1.0
            ]
        },
        {
            "bufferView": 45,
            "byteOffset": 0,
            "componentType": 5125,
            "count": 5928,
            "type": "SCALAR",
            "min": [
                0
            ],
            "max": [
                2561
            ]
        },
        {
            "bufferView": 46,
            "byteOffset": 0,
            "componentType": 5126,
            "count": 2562,
            "type": "VEC3",
            "min": [
                -0.03628524765372276,
                -0.05999999865889549,
                -0.01899999938905239
            ],
            "max": [
                0.05771475285291672,
                2.7755575615628914e-17,
                0.01899999938905239
            ]
        },
        {
            "bufferView": 47,
            "byteOffset": 0,
            "componentType": 5126,
            "count": 2562,
            "type": "VEC3",
            "min": [
                -1.0,
                -1.0,
                -1.0
            ],
            "max": [
                1.0,
                1.0,
                1.0
            ]
        },
        {
            "bufferView": 48,
            "byteOffset": 0,
            "componentType": 5125,
            "count": 1056,
            "type": "SCALAR",
            "min": [
                0
            ],
            "max": [
                421
            ]
        },
        {
            "bufferView": 49,
            "byteOffset": 0,
            "componentType": 5126,
            "count": 422,
            "type": "VEC3",
            "min": [
                -0.016899999231100082,
                -0.04100000113248825,
                -0.016899999231100082
            ],
            "max": [
                0.016899999231100082,
                0.04100000113248825,
                0.016899999231100082
            ]
        },
        {
            "bufferView": 50,
            "byteOffset": 0,
            "componentType": 5126,
            "count": 422,
            "type": "VEC3",
            "min": [
                -1.0,
                -1.0,
                -1.0
            ],
            "max": [
                1.0,
                1.0,
                1.0
            ]
        },
        {
            "bufferView": 51,
            "byteOffset": 0,
            "componentType": 5125,
            "count": 1272,
            "type": "SCALAR",
            "min": [
                0
            ],
            "max": [
                439
            ]
        },
        {
            "bufferView": 52,
            "byteOffset": 0,
            "componentType": 5126,
            "count": 440,
            "type": "VEC3",
            "min": [
                -0.04248133674263954,
                0.0,
                -0.042500000447034836
            ],
            "max": [
                0.04248133674263954,
                0.00430000014603138,
                0.042500000447034836
            ]
        },
        {
            "bufferView": 53,
            "byteOffset": 0,
            "componentType": 5126,
            "count": 440,
            "type": "VEC3",
            "min": [
                -0.9995608329772949,
                -1.0,
                -1.0
            ],
            "max": [
                0.9995608329772949,
                1.0,
                1.0
            ]
        },
        {
            "bufferView": 54,
            "byteOffset": 0,
            "componentType": 5125,
            "count": 1272,
            "type": "SCALAR",
            "min": [
                0
            ],
            "max": [
                439
            ]
        },
        {
            "bufferView": 55,
            "byteOffset": 0,
            "componentType": 5126,
            "count": 440,
            "type": "VEC3",
            "min": [
                -0.04248133674263954,
                0.0,
                -0.042500000447034836
            ],
            "max": [
                0.04248133674263954,
                0.00430000014603138,
                0.042500000447034836
            ]
        },
        {
            "bufferView": 56,
            "byteOffset": 0,
            "componentType": 5126,
            "count": 440,
            "type": "VEC3",
            "min": [
                -0.9995608329772949,
                -1.0,
                -1.0
            ],
            "max": [
                0.9995608329772949,
                1.0,
                1.0
            ]
        },
        {
            "bufferView": 57,
            "byteOffset": 0,
            "componentType": 5125,
            "count": 10278,
            "type": "SCALAR",
            "min": [
                0
            ],
            "max": [
                4529
            ]
        },
        {
            "bufferView": 58,
            "byteOffset": 0,
            "componentType": 5126,
            "count": 4530,
            "type": "VEC3",
            "min": [
                -0.042500000447034836,
                -0.03999999910593033,
                -0.042500000447034836
            ],
            "max": [
                0.042500000447034836,
                0.054999999701976776,
                0.042500000447034836
            ]
        },
        {
            "bufferView": 59,
            "byteOffset": 0,
            "componentType": 5126,
            "count": 4530,
            "type": "VEC3",
            "min": [
                -1.0,
                -1.0,
                -1.0
            ],
            "max": [
                1.0,
                1.0,
                1.0
            ]
        },
        {
            "bufferView": 60,
            "byteOffset": 0,
            "componentType": 5125,
            "count": 6276,
            "type": "SCALAR",
            "min": [
                0
            ],
            "max": [
                2709
            ]
        },
        {
            "bufferView": 61,
            "byteOffset": 0,
            "componentType": 5126,
            "count": 2710,
            "type": "VEC3",
            "min": [
                -0.04699999839067459,
                -2.42861286636753e-17,
                -0.01899999938905239
            ],
            "max": [
                0.04699999839067459,
                0.22370000183582306,
                0.01899999938905239
            ]
        },
        {
            "bufferView": 62,
            "byteOffset": 0,
            "componentType": 5126,
            "count": 2710,
            "type": "VEC3",
            "min": [
                -1.0,
                -1.0,
                -1.0
            ],
            "max": [
                1.0,
                1.0,
                1.0
            ]
        },
        {
            "bufferView": 63,
            "byteOffset": 0,
            "componentType": 5125,
            "count": 37020,
            "type": "SCALAR",
            "min": [
                0
            ],
            "max": [
                15181
            ]
        },
        {
            "bufferView": 64,
            "byteOffset": 0,
            "componentType": 5126,
            "count": 15182,
            "type": "VEC3",
            "min": [
                -0.24300000071525574,
                -0.07999999821186066,
                -0.07199999690055847
            ],
            "max": [
                0.37599998712539673,
                0.07999999821186066,
                0.07199999690055847
            ]
        },
        {
            "bufferView": 65,
            "byteOffset": 0,
            "componentType": 5126,
            "count": 15182,
            "type": "VEC3",
            "min": [
                -1.0,
                -1.0,
                -1.0
            ],
            "max": [
                1.0,
                1.0,
                1.0
            ]
        },
        {
            "bufferView": 66,
            "byteOffset": 0,
            "componentType": 5125,
            "count": 6276,
            "type": "SCALAR",
            "min": [
                0
            ],
            "max": [
                2709
            ]
        },
        {
            "bufferView": 67,
            "byteOffset": 0,
            "componentType": 5126,
            "count": 2710,
            "type": "VEC3",
            "min": [
                -0.04699999839067459,
                -2.42861286636753e-17,
                -0.01899999938905239
            ],
            "max": [
                0.04699999839067459,
                0.22370000183582306,
                0.01899999938905239
            ]
        },
        {
            "bufferView": 68,
            "byteOffset": 0,
            "componentType": 5126,
            "count": 2710,
            "type": "VEC3",
            "min": [
                -1.0,
                -1.0,
                -1.0
            ],
            "max": [
                1.0,
                1.0,
                1.0
            ]
        },
        {
            "bufferView": 69,
            "byteOffset": 0,
            "componentType": 5125,
            "count": 1272,
            "type": "SCALAR",
            "min": [
                0
            ],
            "max": [
                439
            ]
        },
        {
            "bufferView": 70,
            "byteOffset": 0,
            "componentType": 5126,
            "count": 440,
            "type": "VEC3",
            "min": [
                -0.04248133674263954,
                0.0,
                -0.042500000447034836
            ],
            "max": [
                0.04248133674263954,
                0.00430000014603138,
                0.042500000447034836
            ]
        },
        {
            "bufferView": 71,
            "byteOffset": 0,
            "componentType": 5126,
            "count": 440,
            "type": "VEC3",
            "min": [
                -0.9995608329772949,
                -1.0,
                -1.0
            ],
            "max": [
                0.9995608329772949,
                1.0,
                1.0
            ]
        },
        {
            "bufferView": 72,
            "byteOffset": 0,
            "componentType": 5125,
            "count": 10278,
            "type": "SCALAR",
            "min": [
                0
            ],
            "max": [
                4529
            ]
        },
        {
            "bufferView": 73,
            "byteOffset": 0,
            "componentType": 5126,
            "count": 4530,
            "type": "VEC3",
            "min": [
                -0.042500000447034836,
                -0.03999999910593033,
                -0.042500000447034836
            ],
            "max": [
                0.042500000447034836,
                0.054999999701976776,
                0.042500000447034836
            ]
        },
        {
            "bufferView": 74,
            "byteOffset": 0,
            "componentType": 5126,
            "count": 4530,
            "type": "VEC3",
            "min": [
                -1.0,
                -1.0,
                -1.0
            ],
            "max": [
                1.0,
                1.0,
                1.0
            ]
        },
        {
            "bufferView": 75,
            "byteOffset": 0,
            "componentType": 5125,
            "count": 5928,
            "type": "SCALAR",
            "min": [
                0
            ],
            "max": [
                2561
            ]
        },
        {
            "bufferView": 76,
            "byteOffset": 0,
            "componentType": 5126,
            "count": 2562,
            "type": "VEC3",
            "min": [
                -0.03628524765372276,
                -0.05999999865889549,
                -0.01899999938905239
            ],
            "max": [
                0.05771475285291672,
                2.7755575615628914e-17,
                0.01899999938905239
            ]
        },
        {
            "bufferView": 77,
            "byteOffset": 0,
            "componentType": 5126,
            "count": 2562,
            "type": "VEC3",
            "min": [
                -1.0,
                -1.0,
                -1.0
            ],
            "max": [
                1.0,
                1.0,
                1.0
            ]
        },
        {
            "bufferView": 78,
            "byteOffset": 0,
            "componentType": 5125,
            "count": 1056,
            "type": "SCALAR",
            "min": [
                0
            ],
            "max": [
                421
            ]
        },
        {
            "bufferView": 79,
            "byteOffset": 0,
            "componentType": 5126,
            "count": 422,
            "type": "VEC3",
            "min": [
                -0.016899999231100082,
                -0.04100000113248825,
                -0.016899999231100082
            ],
            "max": [
                0.016899999231100082,
                0.04100000113248825,
                0.016899999231100082
            ]
        },
        {
            "bufferView": 80,
            "byteOffset": 0,
            "componentType": 5126,
            "count": 422,
            "type": "VEC3",
            "min": [
                -1.0,
                -1.0,
                -1.0
            ],
            "max": [
                1.0,
                1.0,
                1.0
            ]
        },
        {
            "bufferView": 81,
            "byteOffset": 0,
            "componentType": 5125,
            "count": 1272,
            "type": "SCALAR",
            "min": [
                0
            ],
            "max": [
                439
            ]
        },
        {
            "bufferView": 82,
            "byteOffset": 0,
            "componentType": 5126,
            "count": 440,
            "type": "VEC3",
            "min": [
                -0.04248133674263954,
                0.0,
                -0.042500000447034836
            ],
            "max": [
                0.04248133674263954,
                0.00430000014603138,
                0.042500000447034836
            ]
        },
        {
            "bufferView": 83,
            "byteOffset": 0,
            "componentType": 5126,
            "count": 440,
            "type": "VEC3",
            "min": [
                -0.9995608329772949,
                -1.0,
                -1.0
            ],
            "max": [
                0.9995608329772949,
                1.0,
                1.0
            ]
        },
        {
            "bufferView": 84,
            "byteOffset": 0,
            "componentType": 5125,
            "count": 1272,
            "type": "SCALAR",
            "min": [
                0
            ],
            "max": [
                439
            ]
        },
        {
            "bufferView": 85,
            "byteOffset": 0,
            "componentType": 5126,
            "count": 440,
            "type": "VEC3",
            "min": [
                -0.04248133674263954,
                0.0,
                -0.042500000447034836
            ],
            "max": [
                0.04248133674263954,
                0.00430000014603138,
                0.042500000447034836
            ]
        },
        {
            "bufferView": 86,
            "byteOffset": 0,
            "componentType": 5126,
            "count": 440,
            "type": "VEC3",
            "min": [
                -0.9995608329772949,
                -1.0,
                -1.0
            ],
            "max": [
                0.9995608329772949,
                1.0,
                1.0
            ]
        }
    ],
    "materials": [
        {
            "name": "polishedgold",
            "pbrMetallicRoughness": {
                "baseColorFactor": [
                    1.0,
                    0.6253447403076592,
                    0.21576439972078568,
                    1.0
                ],
                "metallicFactor": 1.0,
                "roughnessFactor": 0.07000000476837158
            }
        },
        {
            "name": "polishedgold",
            "pbrMetallicRoughness": {
                "baseColorFactor": [
                    1.0,
                    0.6253447403076592,
                    0.21576439972078568,
                    1.0
                ],
                "metallicFactor": 1.0,
                "roughnessFactor": 0.07000000476837158
            }
        },
        {
            "name": "glossyrubber",
            "pbrMetallicRoughness": {
                "baseColorFactor": [
                    0.06972709063840661,
                    0.06972709063840661,
                    0.06972709063840661,
                    1.0
                ],
                "metallicFactor": 0.0,
                "roughnessFactor": 0.196000000089407
            }
        },
        {
            "name": "mattelead",
            "pbrMetallicRoughness": {
                "baseColorFactor": [
                    0.15728073117120508,
                    0.17343903880421097,
                    0.15728073117120508,
                    1.0
                ],
                "metallicFactor": 1.0,
                "roughnessFactor": 0.5
            }
        },
        {
            "name": "satinfinishgold",
            "pbrMetallicRoughness": {
                "baseColorFactor": [
                    1.0,
                    0.8122415004576116,
                    0.3488648621678924,
                    1.0
                ],
                "metallicFactor": 1.0,
                "roughnessFactor": 0.5
            }
        },
        {
            "name": "defaultplastic",
            "pbrMetallicRoughness": {
                "baseColorFactor": [
                    0.7817506899134391,
                    0.7817506899134391,
                    0.7817506899134391,
                    1.0
                ],
                "metallicFactor": 0.0,
                "roughnessFactor": 0.1899999998509884
            }
        }
    ],
    "bufferViews": [
        {
            "buffer": 0,
            "byteOffset": 0,
            "byteLength": 23712,
            "target": 34963
        },
        {
            "buffer": 0,
            "byteOffset": 23712,
            "byteLength": 30744,
            "byteStride": 12,
            "target": 34962
        },
        {
            "buffer": 0,
            "byteOffset": 54456,
            "byteLength": 30744,
            "byteStride": 12,
            "target": 34962
        },
        {
            "buffer": 1,
            "byteOffset": 0,
            "byteLength": 25104,
            "target": 34963
        },
        {
            "buffer": 1,
            "byteOffset": 25104,
            "byteLength": 32520,
            "byteStride": 12,
            "target": 34962
        },
        {
            "buffer": 1,
            "byteOffset": 57624,
            "byteLength": 32520,
            "byteStride": 12,
            "target": 34962
        },
        {
            "buffer": 2,
            "byteOffset": 0,
            "byteLength": 5088,
            "target": 34963
        },
        {
            "buffer": 2,
            "byteOffset": 5088,
            "byteLength": 5280,
            "byteStride": 12,
            "target": 34962
        },
        {
            "buffer": 2,
            "byteOffset": 10368,
            "byteLength": 5280,
            "byteStride": 12,
            "target": 34962
        },
        {
            "buffer": 3,
            "byteOffset": 0,
            "byteLength": 4224,
            "target": 34963
        },
        {
            "buffer": 3,
            "byteOffset": 4224,
            "byteLength": 5064,
            "byteStride": 12,
            "target": 34962
        },
        {
            "buffer": 3,
            "byteOffset": 9288,
            "byteLength": 5064,
            "byteStride": 12,
            "target": 34962
        },
        {
            "buffer": 4,
            "byteOffset": 0,
            "byteLength": 5088,
            "target": 34963
        },
        {
            "buffer": 4,
            "byteOffset": 5088,
            "byteLength": 5280,
            "byteStride": 12,
            "target": 34962
        },
        {
            "buffer": 4,
            "byteOffset": 10368,
            "byteLength": 5280,
            "byteStride": 12,
            "target": 34962
        },
        {
            "buffer": 5,
            "byteOffset": 0,
            "byteLength": 5088,
            "target": 34963
        },
        {
            "buffer": 5,
            "byteOffset": 5088,
            "byteLength": 5280,
            "byteStride": 12,
            "target": 34962
        },
        {
            "buffer": 5,
            "byteOffset": 10368,
            "byteLength": 5280,
            "byteStride": 12,
            "target": 34962
        },
        {
            "buffer": 6,
            "byteOffset": 0,
            "byteLength": 41112,
            "target": 34963
        },
        {
            "buffer": 6,
            "byteOffset": 41112,
            "byteLength": 54360,
            "byteStride": 12,
            "target": 34962
        },
        {
            "buffer": 6,
            "byteOffset": 95472,
            "byteLength": 54360,
            "byteStride": 12,
            "target": 34962
        },
        {
            "buffer": 7,
            "byteOffset": 0,
            "byteLength": 5088,
            "target": 34963
        },
        {
            "buffer": 7,
            "byteOffset": 5088,
            "byteLength": 5280,
            "byteStride": 12,
            "target": 34962
        },
        {
            "buffer": 7,
            "byteOffset": 10368,
            "byteLength": 5280,
            "byteStride": 12,
            "target": 34962
        },
        {
            "buffer": 8,
            "byteOffset": 0,
            "byteLength": 4224,
            "target": 34963
        },
        {
            "buffer": 8,
            "byteOffset": 4224,
            "byteLength": 5064,
            "byteStride": 12,
            "target": 34962
        },
        {
            "buffer": 8,
            "byteOffset": 9288,
            "byteLength": 5064,
            "byteStride": 12,
            "target": 34962
        },
        {
            "buffer": 9,
            "byteOffset": 0,
            "byteLength": 25104,
            "target": 34963
        },
        {
            "buffer": 9,
            "byteOffset": 25104,
            "byteLength": 32520,
            "byteStride": 12,
            "target": 34962
        },
        {
            "buffer": 9,
            "byteOffset": 57624,
            "byteLength": 32520,
            "byteStride": 12,
            "target": 34962
        },
        {
            "buffer": 10,
            "byteOffset": 0,
            "byteLength": 23712,
            "target": 34963
        },
        {
            "buffer": 10,
            "byteOffset": 23712,
            "byteLength": 30744,
            "byteStride": 12,
            "target": 34962
        },
        {
            "buffer": 10,
            "byteOffset": 54456,
            "byteLength": 30744,
            "byteStride": 12,
            "target": 34962
        },
        {
            "buffer": 11,
            "byteOffset": 0,
            "byteLength": 41112,
            "target": 34963
        },
        {
            "buffer": 11,
            "byteOffset": 41112,
            "byteLength": 54360,
            "byteStride": 12,
            "target": 34962
        },
        {
            "buffer": 11,
            "byteOffset": 95472,
            "byteLength": 54360,
            "byteStride": 12,
            "target": 34962
        },
        {
            "buffer": 12,
            "byteOffset": 0,
            "byteLength": 5088,
            "target": 34963
        },
        {
            "buffer": 12,
            "byteOffset": 5088,
            "byteLength": 5280,
            "byteStride": 12,
            "target": 34962
        },
        {
            "buffer": 12,
            "byteOffset": 10368,
            "byteLength": 5280,
            "byteStride": 12,
            "target": 34962
        },
        {
            "buffer": 13,
            "byteOffset": 0,
            "byteLength": 5088,
            "target": 34963
        },
        {
            "buffer": 13,
            "byteOffset": 5088,
            "byteLength": 5280,
            "byteStride": 12,
            "target": 34962
        },
        {
            "buffer": 13,
            "byteOffset": 10368,
            "byteLength": 5280,
            "byteStride": 12,
            "target": 34962
        },
        {
            "buffer": 14,
            "byteOffset": 0,
            "byteLength": 5088,
            "target": 34963
        },
        {
            "buffer": 14,
            "byteOffset": 5088,
            "byteLength": 5280,
            "byteStride": 12,
            "target": 34962
        },
        {
            "buffer": 14,
            "byteOffset": 10368,
            "byteLength": 5280,
            "byteStride": 12,
            "target": 34962
        },
        {
            "buffer": 15,
            "byteOffset": 0,
            "byteLength": 23712,
            "target": 34963
        },
        {
            "buffer": 15,
            "byteOffset": 23712,
            "byteLength": 30744,
            "byteStride": 12,
            "target": 34962
        },
        {
            "buffer": 15,
            "byteOffset": 54456,
            "byteLength": 30744,
            "byteStride": 12,
            "target": 34962
        },
        {
            "buffer": 16,
            "byteOffset": 0,
            "byteLength": 4224,
            "target": 34963
        },
        {
            "buffer": 16,
            "byteOffset": 4224,
            "byteLength": 5064,
            "byteStride": 12,
            "target": 34962
        },
        {
            "buffer": 16,
            "byteOffset": 9288,
            "byteLength": 5064,
            "byteStride": 12,
            "target": 34962
        },
        {
            "buffer": 17,
            "byteOffset": 0,
            "byteLength": 5088,
            "target": 34963
        },
        {
            "buffer": 17,
            "byteOffset": 5088,
            "byteLength": 5280,
            "byteStride": 12,
            "target": 34962
        },
        {
            "buffer": 17,
            "byteOffset": 10368,
            "byteLength": 5280,
            "byteStride": 12,
            "target": 34962
        },
        {
            "buffer": 18,
            "byteOffset": 0,
            "byteLength": 5088,
            "target": 34963
        },
        {
            "buffer": 18,
            "byteOffset": 5088,
            "byteLength": 5280,
            "byteStride": 12,
            "target": 34962
        },
        {
            "buffer": 18,
            "byteOffset": 10368,
            "byteLength": 5280,
            "byteStride": 12,
            "target": 34962
        },
        {
            "buffer": 19,
            "byteOffset": 0,
            "byteLength": 41112,
            "target": 34963
        },
        {
            "buffer": 19,
            "byteOffset": 41112,
            "byteLength": 54360,
            "byteStride": 12,
            "target": 34962
        },
        {
            "buffer": 19,
            "byteOffset": 95472,
            "byteLength": 54360,
            "byteStride": 12,
            "target": 34962
        },
        {
            "buffer": 20,
            "byteOffset": 0,
            "byteLength": 25104,
            "target": 34963
        },
        {
            "buffer": 20,
            "byteOffset": 25104,
            "byteLength": 32520,
            "byteStride": 12,
            "target": 34962
        },
        {
            "buffer": 20,
            "byteOffset": 57624,
            "byteLength": 32520,
            "byteStride": 12,
            "target": 34962
        },
        {
            "buffer": 21,
            "byteOffset": 0,
            "byteLength": 148080,
            "target": 34963
        },
        {
            "buffer": 21,
            "byteOffset": 148080,
            "byteLength": 182184,
            "byteStride": 12,
            "target": 34962
        },
        {
            "buffer": 21,
            "byteOffset": 330264,
            "byteLength": 182184,
            "byteStride": 12,
            "target": 34962
        },
        {
            "buffer": 22,
            "byteOffset": 0,
            "byteLength": 25104,
            "target": 34963
        },
        {
            "buffer": 22,
            "byteOffset": 25104,
            "byteLength": 32520,
            "byteStride": 12,
            "target": 34962
        },
        {
            "buffer": 22,
            "byteOffset": 57624,
            "byteLength": 32520,
            "byteStride": 12,
            "target": 34962
        },
        {
            "buffer": 23,
            "byteOffset": 0,
            "byteLength": 5088,
            "target": 34963
        },
        {
            "buffer": 23,
            "byteOffset": 5088,
            "byteLength": 5280,
            "byteStride": 12,
            "target": 34962
        },
        {
            "buffer": 23,
            "byteOffset": 10368,
            "byteLength": 5280,
            "byteStride": 12,
            "target": 34962
        },
        {
            "buffer": 24,
            "byteOffset": 0,
            "byteLength": 41112,
            "target": 34963
        },
        {
            "buffer": 24,
            "byteOffset": 41112,
            "byteLength": 54360,
            "byteStride": 12,
            "target": 34962
        },
        {
            "buffer": 24,
            "byteOffset": 95472,
            "byteLength": 54360,
            "byteStride": 12,
            "target": 34962
        },
        {
            "buffer": 25,
            "byteOffset": 0,
            "byteLength": 23712,
            "target": 34963
        },
        {
            "buffer": 25,
            "byteOffset": 23712,
            "byteLength": 30744,
            "byteStride": 12,
            "target": 34962
        },
        {
            "buffer": 25,
            "byteOffset": 54456,
            "byteLength": 30744,
            "byteStride": 12,
            "target": 34962
        },
        {
            "buffer": 26,
            "byteOffset": 0,
            "byteLength": 4224,
            "target": 34963
        },
        {
            "buffer": 26,
            "byteOffset": 4224,
            "byteLength": 5064,
            "byteStride": 12,
            "target": 34962
        },
        {
            "buffer": 26,
            "byteOffset": 9288,
            "byteLength": 5064,
            "byteStride": 12,
            "target": 34962
        },
        {
            "buffer": 27,
            "byteOffset": 0,
            "byteLength": 5088,
            "target": 34963
        },
        {
            "buffer": 27,
            "byteOffset": 5088,
            "byteLength": 5280,
            "byteStride": 12,
            "target": 34962
        },
        {
            "buffer": 27,
            "byteOffset": 10368,
            "byteLength": 5280,
            "byteStride": 12,
            "target": 34962
        },
        {
            "buffer": 28,
            "byteOffset": 0,
            "byteLength": 5088,
            "target": 34963
        },
        {
            "buffer": 28,
            "byteOffset": 5088,
            "byteLength": 5280,
            "byteStride": 12,
            "target": 34962
        },
        {
            "buffer": 28,
            "byteOffset": 10368,
            "byteLength": 5280,
            "byteStride": 12,
            "target": 34962
        }
    ],
    "buffers": [
        {
            "uri": "1-1-Connecting Rod Cap-1.bin",
            "byteLength": 85200
        },
        {
            "uri": "1-2-Connecting Rod-1.bin",
            "byteLength": 90144
        },
        {
            "uri": "1-3-Piston Ring-3.bin",
            "byteLength": 15648
        },
        {
            "uri": "1-4-Piston Pin-1.bin",
            "byteLength": 14352
        },
        {
            "uri": "1-5-Piston Ring-2.bin",
            "byteLength": 15648
        },
        {
            "uri": "1-6-Piston Ring-1.bin",
            "byteLength": 15648
        },
        {
            "uri": "1-7-Piston-1.bin",
            "byteLength": 149832
        },
        {
            "uri": "2-8-Piston Ring-1.bin",
            "byteLength": 15648
        },
        {
            "uri": "2-9-Piston Pin-1.bin",
            "byteLength": 14352
        },
        {
            "uri": "2-10-Connecting Rod-1.bin",
            "byteLength": 90144
        },
        {
            "uri": "2-11-Connecting Rod Cap-1.bin",
            "byteLength": 85200
        },
        {
            "uri": "2-12-Piston-1.bin",
            "byteLength": 149832
        },
        {
            "uri": "2-13-Piston Ring-2.bin",
            "byteLength": 15648
        },
        {
            "uri": "2-14-Piston Ring-3.bin",
            "byteLength": 15648
        },
        {
            "uri": "3-15-Piston Ring-1.bin",
            "byteLength": 15648
        },
        {
            "uri": "3-16-Connecting Rod Cap-1.bin",
            "byteLength": 85200
        },
        {
            "uri": "3-17-Piston Pin-1.bin",
            "byteLength": 14352
        },
        {
            "uri": "3-18-Piston Ring-2.bin",
            "byteLength": 15648
        },
        {
            "uri": "3-19-Piston Ring-3.bin",
            "byteLength": 15648
        },
        {
            "uri": "3-20-Piston-1.bin",
            "byteLength": 149832
        },
        {
            "uri": "3-21-Connecting Rod-1.bin",
            "byteLength": 90144
        },
        {
            "uri": "3-22-Crankshaft-2.bin",
            "byteLength": 512448
        },
        {
            "uri": "4-23-Connecting Rod-1.bin",
            "byteLength": 90144
        },
        {
            "uri": "4-24-Piston Ring-2.bin",
            "byteLength": 15648
        },
        {
            "uri": "4-25-Piston-1.bin",
            "byteLength": 149832
        },
        {
            "uri": "4-26-Connecting Rod Cap-1.bin",
            "byteLength": 85200
        },
        {
            "uri": "4-27-Piston Pin-1.bin",
            "byteLength": 14352
        },
        {
            "uri": "4-28-Piston Ring-1.bin",
            "byteLength": 15648
        },
        {
            "uri": "4-29-Piston Ring-3.bin",
            "byteLength": 15648
        }
    ]
}
